<?xml version="1.0" encoding="UTF-8"?>
<svg width="24px" height="36px" viewBox="0 0 24 36" version="1.1" xmlns="http://www.w3.org/2000/svg" xmlns:xlink="http://www.w3.org/1999/xlink">
    <!-- Generator: Sketch 52.2 (67145) - http://www.bohemiancoding.com/sketch -->
    <title>step-forward - FontAwesome</title>
    <desc>Created with Sketch.</desc>
    <g id="Page-2" stroke="none" stroke-width="1" fill="none" fill-rule="evenodd">
        <g id="playlist" transform="translate(-1326.000000, -784.000000)" fill="#000000">
            <g id="Group-2" transform="translate(35.000000, 736.000000)">
                <path d="M1292.02958,82.8919592 C1291.45759,83.464254 1291,83.2582279 1291,82.4570151 L1291,48.7602956 C1291,47.9590828 1291.45759,47.7530567 1292.02958,48.3253515 L1308.27401,64.5785247 C1308.41128,64.7158754 1308.5028,64.8532262 1308.57144,65.0134687 L1308.57144,49.492833 C1308.57144,48.6916202 1309.23494,48.0277582 1310.03573,48.0277582 L1312.9643,48.0277582 C1313.76508,48.0277582 1314.42859,48.6916202 1314.42859,49.492833 L1314.42859,81.7244777 C1314.42859,82.5256905 1313.76508,83.1895525 1312.9643,83.1895525 L1310.03573,83.1895525 C1309.23494,83.1895525 1308.57144,82.5256905 1308.57144,81.7244777 L1308.57144,66.203842 C1308.5028,66.3640845 1308.41128,66.5014353 1308.27401,66.638786 L1292.02958,82.8919592 Z" id="step-forward---FontAwesome"></path>
            </g>
        </g>
    </g>
</svg>